<svg id="Group_4816" data-name="Group 4816" xmlns="http://www.w3.org/2000/svg" xmlns:xlink="http://www.w3.org/1999/xlink" width="28.756" height="25.275" viewBox="0 0 28.756 25.275">
  <defs>
    <clipPath id="clip-path">
      <rect id="Rectangle_1267" data-name="Rectangle 1267" width="28.756" height="25.275" fill="#a4c422"/>
    </clipPath>
  </defs>
  <g id="Group_4815" data-name="Group 4815" clip-path="url(#clip-path)">
    <path id="Path_39170" data-name="Path 39170" d="M24.007,13.925a1.265,1.265,0,0,0-1.513.955,10.108,10.108,0,1,1-9.858-12.35,10.034,10.034,0,0,1,7.147,2.961,1.266,1.266,0,0,0,1.79-1.79,12.637,12.637,0,1,0-1,18.767,12.684,12.684,0,0,0,4.385-7.029,1.268,1.268,0,0,0-.955-1.515" transform="translate(0 0)" fill="#a4c422"/>
    <path id="Path_39171" data-name="Path 39171" d="M251.995,64.587a1.567,1.567,0,0,0-2.217,0l-4.6,4.6L238.6,75.761l-3.813-3.813a1.568,1.568,0,1,0-2.217,2.217l4.921,4.92a1.564,1.564,0,0,0,2.217,0l6.46-6.46,5.822-5.822a1.568,1.568,0,0,0,0-2.215" transform="translate(-223.697 -61.802)" fill="#a4c422"/>
  </g>
</svg>
