<svg xmlns="http://www.w3.org/2000/svg" width="87.792" height="54.498" viewBox="0 0 87.792 54.498">
  <g id="Group_942" data-name="Group 942" transform="translate(-1906.978 -868.157)">
    <path id="Path_38996" data-name="Path 38996" d="M1954.52,883.552l-19.132-14.394-27.01,20.322" fill="none" stroke="#003974" stroke-linecap="round" stroke-linejoin="round" stroke-width="2"/>
    <line id="Line_96" data-name="Line 96" y2="33.246" transform="translate(1913.446 885.666)" fill="none" stroke="#003974" stroke-linecap="round" stroke-linejoin="round" stroke-width="2"/>
    <rect id="Rectangle_1125" data-name="Rectangle 1125" width="15.101" height="15.101" transform="translate(1927.837 892.785)" fill="none" stroke="#003974" stroke-miterlimit="10" stroke-width="2"/>
    <rect id="Rectangle_1126" data-name="Rectangle 1126" width="8.828" height="8.828" transform="translate(1930.974 895.922)" fill="none" stroke="#003974" stroke-width="2"/>
    <line id="Line_97" data-name="Line 97" x2="29.493" transform="translate(1913.446 918.912)" fill="none" stroke="#003974" stroke-linecap="round" stroke-linejoin="round" stroke-width="2"/>
    <path id="Path_38997" data-name="Path 38997" d="M1959.594,889.408l-10.32-7.764-10.32,7.764" transform="translate(-13.886 -5.671)" fill="none" stroke="#003974" stroke-linecap="round" stroke-linejoin="round" stroke-width="2"/>
    <circle id="Ellipse_4" data-name="Ellipse 4" cx="5.622" cy="5.622" r="5.622" transform="translate(1951.672 913.29) rotate(-45)" fill="none" stroke="#003974" stroke-linecap="round" stroke-linejoin="round" stroke-width="2"/>
    <path id="Path_38998" data-name="Path 38998" d="M2002.624,950.008a1.88,1.88,0,1,1-3.761,0" transform="translate(-41.094 -36.718)" fill="none" stroke="#003974" stroke-linecap="round" stroke-linejoin="round" stroke-width="2"/>
    <path id="Path_38999" data-name="Path 38999" d="M1988.772,924.012h0a3.818,3.818,0,0,1-3.825-3.715c-.072-2.988.47-7.121,3.465-9.829a10.207,10.207,0,0,1,2.961-1.832,36.725,36.725,0,0,0,13.344-9.858,18.757,18.757,0,0,1,13.695-6.714q.305-.008.619-.008v12.271" transform="translate(-34.771 -10.4)" fill="none" stroke="#003974" stroke-linecap="round" stroke-linejoin="round" stroke-width="2"/>
    <path id="Path_39000" data-name="Path 39000" d="M1988.772,924.012h0a3.818,3.818,0,0,1-3.825-3.715c-.072-2.988.47-7.121,3.465-9.829a10.207,10.207,0,0,1,2.961-1.832,36.725,36.725,0,0,0,13.344-9.858,18.757,18.757,0,0,1,13.695-6.714q.305-.008.619-.008V923.69" transform="translate(-34.771 -10.4)" fill="none" stroke="#003974" stroke-linecap="round" stroke-linejoin="round" stroke-width="2"/>
    <path id="Path_39001" data-name="Path 39001" d="M2047.4,886.5v-5.152a1.532,1.532,0,0,1,1.532-1.532h7.977" transform="translate(-63.134 -4.838)" fill="none" stroke="#003974" stroke-linecap="round" stroke-linejoin="round" stroke-width="2"/>
    <line id="Line_98" data-name="Line 98" x1="28.524" transform="translate(1965.245 913.29)" fill="none" stroke="#003974" stroke-linecap="round" stroke-linejoin="round" stroke-width="2"/>
    <path id="Path_39002" data-name="Path 39002" d="M2023.725,905.155h4.474v9.574h-13.468" transform="translate(-48.3 -16.348)" fill="none" stroke="#003974" stroke-linecap="round" stroke-linejoin="round" stroke-width="2"/>
    <line id="Line_99" data-name="Line 99" y2="9.967" transform="translate(1979.899 898.38)" fill="none" stroke="#003974" stroke-linecap="round" stroke-linejoin="round" stroke-width="2"/>
  </g>
</svg>
