<svg xmlns="http://www.w3.org/2000/svg" width="71.712" height="62.099" viewBox="0 0 71.712 62.099">
  <g id="Group_955" data-name="Group 955" transform="translate(-636.337 -858.95)">
    <path id="Path_39038" data-name="Path 39038" d="M662.5,903.068H638.416a1.08,1.08,0,0,1-1.079-1.079V861.029a1.079,1.079,0,0,1,1.079-1.079H705.97a1.079,1.079,0,0,1,1.079,1.079v40.959a1.08,1.08,0,0,1-1.079,1.079H681.882" transform="translate(0)" fill="none" stroke="#003974" stroke-miterlimit="10" stroke-width="2"/>
    <circle id="Ellipse_14" data-name="Ellipse 14" cx="9.688" cy="9.688" r="9.688" transform="translate(662.505 893.395)" fill="none" stroke="#003974" stroke-miterlimit="10" stroke-width="2"/>
    <circle id="Ellipse_15" data-name="Ellipse 15" cx="6.398" cy="6.398" r="6.398" transform="translate(665.796 896.685)" fill="none" stroke="#003974" stroke-width="2"/>
    <path id="Path_39039" data-name="Path 39039" d="M702.257,915.962a13.74,13.74,0,0,0-19.432,0" transform="translate(-20.348 -23.256)" fill="none" stroke="#003974" stroke-linecap="round" stroke-miterlimit="10" stroke-width="2"/>
    <path id="Path_39040" data-name="Path 39040" d="M706.131,949.9l6.2,6.2v-6.183h6.183l-6.2-6.2" transform="translate(-30.774 -37.473)" fill="none" stroke="#003974" stroke-linecap="round" stroke-miterlimit="10" stroke-width="2"/>
    <path id="Path_39041" data-name="Path 39041" d="M684.654,949.9l-6.2,6.2v-6.183h-6.184l6.2-6.2" transform="translate(-15.625 -37.473)" fill="none" stroke="#003974" stroke-linecap="round" stroke-miterlimit="10" stroke-width="2"/>
    <line id="Line_145" data-name="Line 145" x1="29.699" transform="translate(657.499 877.934)" fill="none" stroke="#003974" stroke-linecap="round" stroke-miterlimit="10" stroke-width="2"/>
    <line id="Line_146" data-name="Line 146" x2="40.161" transform="translate(652.243 870.998)" fill="none" stroke="#003974" stroke-linecap="round" stroke-miterlimit="10" stroke-width="2"/>
  </g>
</svg>
