<svg xmlns="http://www.w3.org/2000/svg" width="58.483" height="51.601" viewBox="0 0 58.483 51.601">
  <g id="Group_771" data-name="Group 771" transform="translate(-426.383 -115.033)">
    <path id="Path_39057" data-name="Path 39057" d="M428.9,133.057a.294.294,0,0,0,0,.587h53.453a.294.294,0,0,0,0-.587Zm53.453,2.809H428.9a2.515,2.515,0,0,1,0-5.031h53.453a2.515,2.515,0,0,1,0,5.031" transform="translate(0 3.289)" fill="#003974"/>
    <path id="Path_39058" data-name="Path 39058" d="M431.1,142.562a1.11,1.11,0,0,1-1.11-1.11v-7.18a1.11,1.11,0,1,1,2.221,0v7.18a1.11,1.11,0,0,1-1.11,1.11" transform="translate(0.751 3.773)" fill="#003974"/>
    <path id="Path_39059" data-name="Path 39059" d="M431.1,153.492a1.11,1.11,0,0,1-1.11-1.11v-8.213a1.11,1.11,0,1,1,2.221,0v8.213a1.11,1.11,0,0,1-1.11,1.11" transform="translate(0.751 5.833)" fill="#003974"/>
    <path id="Path_39060" data-name="Path 39060" d="M431.475,141.689a1.058,1.058,0,1,0,1.058,1.058,1.06,1.06,0,0,0-1.058-1.058m0,4.338a3.28,3.28,0,1,1,3.28-3.28,3.284,3.284,0,0,1-3.28,3.28" transform="translate(0.377 5.086)" fill="#003974"/>
    <path id="Path_39061" data-name="Path 39061" d="M438.972,142.562a1.11,1.11,0,0,1-1.11-1.11v-7.18a1.11,1.11,0,1,1,2.221,0v7.18a1.11,1.11,0,0,1-1.11,1.11" transform="translate(2.389 3.773)" fill="#003974"/>
    <path id="Path_39062" data-name="Path 39062" d="M438.972,153.492a1.11,1.11,0,0,1-1.11-1.11v-8.213a1.11,1.11,0,1,1,2.221,0v8.213a1.11,1.11,0,0,1-1.11,1.11" transform="translate(2.389 5.833)" fill="#003974"/>
    <path id="Path_39063" data-name="Path 39063" d="M439.346,141.689a1.058,1.058,0,1,0,1.058,1.058,1.06,1.06,0,0,0-1.058-1.058m0,4.338a3.28,3.28,0,1,1,3.28-3.28,3.284,3.284,0,0,1-3.28,3.28" transform="translate(2.015 5.086)" fill="#003974"/>
    <path id="Path_39064" data-name="Path 39064" d="M446.843,142.562a1.11,1.11,0,0,1-1.11-1.11v-7.18a1.11,1.11,0,1,1,2.221,0v7.18a1.11,1.11,0,0,1-1.11,1.11" transform="translate(4.027 3.773)" fill="#003974"/>
    <path id="Path_39065" data-name="Path 39065" d="M446.843,153.492a1.11,1.11,0,0,1-1.11-1.11v-8.213a1.11,1.11,0,1,1,2.221,0v8.213a1.11,1.11,0,0,1-1.11,1.11" transform="translate(4.027 5.833)" fill="#003974"/>
    <path id="Path_39066" data-name="Path 39066" d="M447.217,141.689a1.058,1.058,0,1,0,1.058,1.058,1.06,1.06,0,0,0-1.058-1.058m0,4.338a3.28,3.28,0,1,1,3.28-3.28,3.284,3.284,0,0,1-3.28,3.28" transform="translate(3.654 5.086)" fill="#003974"/>
    <path id="Path_39067" data-name="Path 39067" d="M454.714,142.562a1.11,1.11,0,0,1-1.11-1.11v-7.18a1.11,1.11,0,1,1,2.221,0v7.18a1.11,1.11,0,0,1-1.11,1.11" transform="translate(5.666 3.773)" fill="#003974"/>
    <path id="Path_39068" data-name="Path 39068" d="M454.714,153.492a1.11,1.11,0,0,1-1.11-1.11v-8.213a1.11,1.11,0,1,1,2.221,0v8.213a1.11,1.11,0,0,1-1.11,1.11" transform="translate(5.666 5.833)" fill="#003974"/>
    <path id="Path_39069" data-name="Path 39069" d="M455.088,141.689a1.058,1.058,0,1,0,1.058,1.058,1.06,1.06,0,0,0-1.058-1.058m0,4.338a3.28,3.28,0,1,1,3.28-3.28,3.284,3.284,0,0,1-3.28,3.28" transform="translate(5.292 5.086)" fill="#003974"/>
    <path id="Path_39070" data-name="Path 39070" d="M462.585,142.562a1.11,1.11,0,0,1-1.11-1.11v-7.18a1.11,1.11,0,1,1,2.221,0v7.18a1.11,1.11,0,0,1-1.11,1.11" transform="translate(7.304 3.773)" fill="#003974"/>
    <path id="Path_39071" data-name="Path 39071" d="M462.585,153.492a1.11,1.11,0,0,1-1.11-1.11v-8.213a1.11,1.11,0,1,1,2.221,0v8.213a1.11,1.11,0,0,1-1.11,1.11" transform="translate(7.304 5.833)" fill="#003974"/>
    <path id="Path_39072" data-name="Path 39072" d="M462.959,141.689a1.058,1.058,0,1,0,1.058,1.058,1.06,1.06,0,0,0-1.058-1.058m0,4.338a3.28,3.28,0,1,1,3.28-3.28,3.284,3.284,0,0,1-3.28,3.28" transform="translate(6.93 5.086)" fill="#003974"/>
    <path id="Path_39073" data-name="Path 39073" d="M470.456,142.562a1.11,1.11,0,0,1-1.11-1.11v-7.18a1.11,1.11,0,1,1,2.221,0v7.18a1.11,1.11,0,0,1-1.11,1.11" transform="translate(8.942 3.773)" fill="#003974"/>
    <path id="Path_39074" data-name="Path 39074" d="M470.456,153.492a1.11,1.11,0,0,1-1.11-1.11v-8.213a1.11,1.11,0,1,1,2.221,0v8.213a1.11,1.11,0,0,1-1.11,1.11" transform="translate(8.942 5.833)" fill="#003974"/>
    <path id="Path_39075" data-name="Path 39075" d="M470.83,141.689a1.058,1.058,0,1,0,1.058,1.058,1.06,1.06,0,0,0-1.058-1.058m0,4.338a3.28,3.28,0,1,1,3.28-3.28,3.284,3.284,0,0,1-3.28,3.28" transform="translate(8.568 5.086)" fill="#003974"/>
    <path id="Path_39076" data-name="Path 39076" d="M429.111,157.164h52.82v-5.087h-52.82Zm53.93,2.222H428a1.111,1.111,0,0,1-1.11-1.11v-7.309a1.111,1.111,0,0,1,1.11-1.111h55.041a1.111,1.111,0,0,1,1.11,1.111v7.309a1.11,1.11,0,0,1-1.11,1.11" transform="translate(0.105 7.248)" fill="#003974"/>
    <path id="Path_39077" data-name="Path 39077" d="M471.269,136.036a1.11,1.11,0,0,1-1.11-1.11V117.255H437.925v17.671a1.111,1.111,0,0,1-2.222,0V116.143a1.11,1.11,0,0,1,1.11-1.11h34.456a1.11,1.11,0,0,1,1.11,1.11v18.783a1.11,1.11,0,0,1-1.11,1.11" transform="translate(1.94 0)" fill="#003974"/>
    <path id="Path_39078" data-name="Path 39078" d="M451.073,135.868a1.11,1.11,0,0,1-1.11-1.11v-17.8a1.11,1.11,0,1,1,2.221,0v17.8a1.11,1.11,0,0,1-1.11,1.11" transform="translate(4.908 0.169)" fill="#003974"/>
    <path id="Path_39079" data-name="Path 39079" d="M436.78,125.543a1.111,1.111,0,0,1-.716-1.96l9.055-7.635a1.111,1.111,0,1,1,1.433,1.7l-9.056,7.637a1.107,1.107,0,0,1-.715.261" transform="translate(1.933 0.136)" fill="#003974"/>
    <path id="Path_39080" data-name="Path 39080" d="M441.138,125.51a1.111,1.111,0,0,1-.706-1.969L449.5,116.1a1.111,1.111,0,0,1,1.41,1.717l-9.062,7.446a1.1,1.1,0,0,1-.7.253" transform="translate(2.84 0.169)" fill="#003974"/>
  </g>
</svg>
