<svg xmlns="http://www.w3.org/2000/svg" width="54.401" height="59.974" viewBox="0 0 54.401 59.974">
  <g id="Group_946" data-name="Group 946" transform="translate(-1017.788 -859.423)">
    <g id="Group_738" data-name="Group 738" transform="translate(1018.788 860.423)">
      <rect id="Rectangle_1142" data-name="Rectangle 1142" width="38.785" height="53.299" fill="none" stroke="#003974" stroke-miterlimit="10" stroke-width="2"/>
      <path id="Path_39003" data-name="Path 39003" d="M1061.943,869.469h4.675v53.3h-38.784v-4.675" transform="translate(-1023.159 -864.794)" fill="none" stroke="#003974" stroke-miterlimit="10" stroke-width="2"/>
      <rect id="Rectangle_1143" data-name="Rectangle 1143" width="13.35" height="13.35" transform="translate(4.675 4.675)" fill="none" stroke="#003974" stroke-miterlimit="10" stroke-width="2"/>
      <rect id="Rectangle_1144" data-name="Rectangle 1144" width="7.825" height="7.825" transform="translate(15.262 7.438) rotate(90)" fill="none" stroke="#003974" stroke-width="2"/>
      <line id="Line_118" data-name="Line 118" x2="30.82" transform="translate(3.908 22.742)" fill="none" stroke="#003974" stroke-miterlimit="10" stroke-width="2"/>
      <line id="Line_119" data-name="Line 119" x2="30.82" transform="translate(3.908 27.639)" fill="none" stroke="#003974" stroke-miterlimit="10" stroke-width="2"/>
      <line id="Line_120" data-name="Line 120" x2="30.82" transform="translate(3.908 32.537)" fill="none" stroke="#003974" stroke-miterlimit="10" stroke-width="2"/>
      <line id="Line_121" data-name="Line 121" x2="12.491" transform="translate(22.237 4.675)" fill="none" stroke="#003974" stroke-miterlimit="10" stroke-width="2"/>
      <line id="Line_122" data-name="Line 122" x2="12.491" transform="translate(22.237 9.572)" fill="none" stroke="#003974" stroke-miterlimit="10" stroke-width="2"/>
      <line id="Line_123" data-name="Line 123" x2="30.82" transform="translate(3.908 37.434)" fill="none" stroke="#003974" stroke-miterlimit="10" stroke-width="2"/>
      <line id="Line_124" data-name="Line 124" x1="10.661" transform="translate(24.067 48.375)" fill="none" stroke="#003974" stroke-miterlimit="10" stroke-width="2"/>
      <rect id="Rectangle_1145" data-name="Rectangle 1145" width="10.661" height="3.191" transform="translate(24.067 42.587)" fill="none" stroke="#003974" stroke-width="2"/>
    </g>
    <g id="Group_739" data-name="Group 739" transform="translate(1067.85 885.794)">
      <rect id="Rectangle_1146" data-name="Rectangle 1146" width="3.339" height="20.11" transform="translate(3.339 23.449) rotate(180)" fill="none" stroke="#003974" stroke-miterlimit="10" stroke-width="2"/>
      <path id="Rectangle_1147" data-name="Rectangle 1147" d="M1.67,0h0a1.67,1.67,0,0,1,1.67,1.67V5.788a0,0,0,0,1,0,0H0a0,0,0,0,1,0,0V1.67A1.67,1.67,0,0,1,1.67,0Z" transform="translate(3.339 29.237) rotate(180)" fill="none" stroke="#003974" stroke-miterlimit="10" stroke-width="2"/>
      <line id="Line_125" data-name="Line 125" y2="3.365" transform="translate(1.67 29.237)" fill="none" stroke="#003974" stroke-miterlimit="10" stroke-width="2"/>
      <path id="Rectangle_1148" data-name="Rectangle 1148" d="M0,0H3.339a0,0,0,0,1,0,0V1.67a1.67,1.67,0,0,1-1.67,1.67h0A1.67,1.67,0,0,1,0,1.67V0A0,0,0,0,1,0,0Z" transform="translate(3.339 3.339) rotate(180)" fill="none" stroke="#003974" stroke-miterlimit="10" stroke-width="2"/>
    </g>
  </g>
</svg>
