<svg id="Layer_1" data-name="Layer 1" xmlns="http://www.w3.org/2000/svg" viewBox="0 0 167.35 57.45"><defs><style>.cls-1{fill:#001535;}.cls-2{fill:#ba5310;}.cls-3{fill:#424d0b;}.cls-4{fill:#5d6b15;}.cls-5{fill:#a4c422;}.cls-6{fill:#f36a10;}.cls-7{fill:#002c62;}</style></defs><g id="Group_889" data-name="Group 889"><path id="Path_39088" data-name="Path 39088" class="cls-1" d="M155.86,28.42l4.36,9.2.21.39.2.39.19.38.17.37.16.38.14.36.13.37.12.36.11.36.09.35.08.37.06.36.06.36.05.37,0,.37,0,.38v1.12l0,.38,0,.39-.05.38-.06.39-.07.38-.09.4-.1.39-.06.24-.07.24-.07.24-.08.23-.08.23-.08.23-.08.23-.29.67-.1.22-.1.21-.1.21-.11.21-.12.21-.12.21-.12.2-.13.2-.13.2-.13.2-.14.19-.14.19-.14.19-.15.19-.15.18-.15.18-.16.18-.16.18-.17.18-.17.17-.17.17-.18.16-.35.33-.37.31-.38.29-.38.28-.39.26-.4.25-.41.23-.42.22-.42.2-.43.18-.45.17-.45.16-.45.14-.47.12-.48.11-.48.09-.26,0-.26,0-.24,0-.23,0-.22,0-.21,0h-1.41l-.25,0-.25,0-.25,0-.25,0-.14,0-.15,0-.15,0-.15,0-.16,0-.16,0-.16,0-.17,0-.16,0-.18,0-.17,0-.18,0-.19,0-.19,0-.2,0-.19,0-.41-.5c-8.78-10.72-8.36-10-18-23.67l.19.26.19.27.19.27.19.27.19.26.19.27.19.27.2.26.19.27.2.26.2.27.2.26.2.26.2.27.2.26.2.26.2.27.2.26.2.26.2.26.2.26.7.89.24.31.24.3.23.29.45.58.22.27.22.27.21.27.21.26.2.25.2.25.2.24.19.24.19.23.19.24.21.25.22.28.25.3.26.32.27.33.6.74.32.39.34.41.36.43,1.58,1.93.43.53.21,0,.21,0,.2,0,.2,0,.19,0,.19,0,.18,0,.19,0,.18,0,.17,0,.17,0,.17,0,.16,0,.16,0,.16,0,.15,0,.27,0,.27,0,.26,0,.28,0h1.51l.23,0,.23,0,.25,0,.26,0,.27-.05.29,0,.51-.1.52-.12.5-.13L148,49l.48-.17.47-.18.47-.2.46-.21.44-.23.44-.25.43-.27.42-.28.42-.3.4-.31.39-.34.39-.34.18-.18.19-.19.18-.18.18-.19.17-.19.17-.19.17-.2.16-.2.16-.2.16-.2.15-.21.14-.2.15-.21.13-.22.14-.21.13-.22.13-.22.12-.22.12-.23.12-.23.11-.23.11-.23.1-.24.1-.24.1-.24.09-.24.09-.25.09-.25.08-.25.08-.25.07-.26.07-.26.1-.42.09-.42.08-.41.07-.42,0-.41,0-.41,0-.41,0-.4v-.8l0-.4,0-.4-.05-.4-.06-.39-.07-.39-.08-.39-.1-.38-.11-.38-.13-.39-.14-.39-.15-.39-.17-.4-.18-.4-.2-.41-.21-.41Z" transform="translate(0 0)"/><path id="Path_39089" data-name="Path 39089" class="cls-2" d="M132.84,47.62l5.69,8.53-21.29-5.08L110,42.2Z" transform="translate(0 0)"/><path id="Path_39090" data-name="Path 39090" class="cls-3" d="M158.71,25.31l4.17,8.42L151,18,142,1.61Z" transform="translate(0 0)"/><path id="Path_39091" data-name="Path 39091" class="cls-4" d="M163.1,6.5l4.25,10.1-4.44,17.13-4.6-8.88Z" transform="translate(0 0)"/><path id="Path_39092" data-name="Path 39092" class="cls-5" d="M158.31,24.85,142,1.6l21.1,4.89Z" transform="translate(0 0)"/><path id="Path_39093" data-name="Path 39093" class="cls-6" d="M110,42.2l5.08-19,17.75,24.39Z" transform="translate(0 0)"/><path id="Path_39094" data-name="Path 39094" class="cls-7" d="M136.5.63l18,25.65c.39.57.75,1.13,1.1,1.72s.6,1.08.88,1.65c.18.4.34.79.5,1.2s.26.77.38,1.17.18.75.25,1.15a11.86,11.86,0,0,1,.14,1.18c0,.41,0,.8,0,1.2s0,.81-.08,1.23-.12.82-.2,1.24a19.43,19.43,0,0,1-.59,2.11,14.15,14.15,0,0,1-3.76,5.75l-.78.68-.81.61-.85.55-.89.48-.92.41L148,49l-1,.28a14.2,14.2,0,0,1-3,.44c-.56,0-1.08,0-1.64-.06-1.14-.12-2.29-.33-3.42-.56-3.56-4.33-7.16-8.66-10.52-13.15C127,34,125.6,32,124.26,30a62.56,62.56,0,0,1-4.37-7.23,19.83,19.83,0,0,1-2-5.43,17.65,17.65,0,0,1,0-4.76,15.56,15.56,0,0,1,.42-2.14,14.37,14.37,0,0,1,3.87-6.61c.31-.29.62-.56.95-.82l.8-.59.83-.53.88-.47.92-.4,1-.34a15.81,15.81,0,0,1,2.45-.56A17,17,0,0,1,132.67,0a29.1,29.1,0,0,1,3.83.62" transform="translate(0 0)"/><path id="Path_39095" data-name="Path 39095" class="cls-7" d="M0,10.54v2.65H6c5.88,0,6.18,4.46,6.18,9.59V45.49h3.72V25.92c0-8.87,0-15.38-9.48-15.38Z" transform="translate(0 0)"/><rect id="Rectangle_1151" data-name="Rectangle 1151" class="cls-7" x="21.1" y="10.53" width="3.67" height="34.95"/><path id="Path_39096" data-name="Path 39096" class="cls-7" d="M38.44,45.49h3.73V13.19h3.3V10.53H27.06v2.66H38.44Z" transform="translate(0 0)"/><path id="Path_39097" data-name="Path 39097" class="cls-7" d="M48.52,10.54l2.89,35h4.83c8.57,0,12-4.5,12-12.49V10.54ZM64.64,32.59c0,6.73-2.62,10.24-7.25,10.24H55L52.29,13.19H64.64Z" transform="translate(0 0)"/><rect id="Rectangle_1152" data-name="Rectangle 1152" class="cls-7" x="72.8" y="10.53" width="3.61" height="18.41"/><rect id="Rectangle_1153" data-name="Rectangle 1153" class="cls-7" x="81.53" y="10.53" width="3.61" height="18.41"/><path id="Path_39098" data-name="Path 39098" class="cls-7" d="M87.88,10.54v2.65h6c5.87,0,6.18,4.46,6.18,9.59V45.49h3.72V25.92c0-8.87,0-15.38-9.48-15.38Z" transform="translate(0 0)"/><path id="Path_39099" data-name="Path 39099" class="cls-6" d="M71.84,39.73H70.13v.64h.54l-.5,4.92H71l.48-4.93h.28c.72,0,.87.35.87,1.22v3.07h-.94v.64h1.77V41.81c0-1.46-.31-2.08-1.62-2.08" transform="translate(0 0)"/><path id="Path_39100" data-name="Path 39100" class="cls-6" d="M74.19,38.81l-.32,2.34h.52l.47-1.73v-.61Zm1.13,0L75,41.15h.52L76,39.42v-.61Z" transform="translate(0 0)"/><path id="Path_39101" data-name="Path 39101" class="cls-6" d="M78.62,39.73v3.49c0,.94-.19,1.19-.9,1.38l-.55-4.87h-.85l.59,5.07-.77.19.18.63,1.54-.39c1.18-.3,1.6-.69,1.6-2.15V39.73Z" transform="translate(0 0)"/><path id="Path_39102" data-name="Path 39102" class="cls-6" d="M82.37,44.65V39.74H79.9v.64h1.63v4.27H79.9v.64h3v-.64Z" transform="translate(0 0)"/><path id="Path_39103" data-name="Path 39103" class="cls-6" d="M86.54,39.74H84.77v.64h.44v4.26h-.74v.65H86V40.38h.41c.7,0,.92.24.92,1.22v3.69h.84V41.73c0-1.59-.45-2-1.65-2" transform="translate(0 0)"/><rect id="Rectangle_1154" data-name="Rectangle 1154" class="cls-6" x="88.92" y="39.73" width="0.85" height="5.55"/><path id="Path_39104" data-name="Path 39104" class="cls-6" d="M92,39.73H90.29v.64h.54l-.5,4.92h.83l.48-4.93h.28c.72,0,.87.35.87,1.22v3.07h-.94v.64h1.77V41.81c0-1.46-.31-2.08-1.62-2.08" transform="translate(0 0)"/><path id="Path_39105" data-name="Path 39105" class="cls-6" d="M96.33,39.74H94v.64h.94v0c-.35.26-.56.9-.35,2.22l.4,2.66h.85L95.4,42.5c-.2-1.29,0-1.84.25-2.12h.69Z" transform="translate(0 0)"/><rect id="Rectangle_1155" data-name="Rectangle 1155" class="cls-6" x="96.55" y="39.73" width="0.85" height="3.14"/></g></svg>